<svg width="207" height="179" viewBox="0 0 207 179" fill="none" xmlns="http://www.w3.org/2000/svg">
<rect width="207" height="179" fill="#E5E5E5"/>
<g id="Frame" clip-path="url(#clip0_3311_2)">
<path id="Vector" d="M134.604 4.83617C138.091 6.35628 141.094 7.92838 142.867 9.97138C142.867 10.6162 142.867 11.2611 142.867 11.9255C143.647 11.7687 144.426 11.6119 145.228 11.4503C150.27 10.6376 155.1 10.6151 160.386 10.9484C163.259 11.8644 163.259 11.8644 165.86 13.391C167.364 14.0938 168.87 14.796 170.376 15.4978C176.959 18.7825 182.392 22.403 187.758 26.0926C188.168 26.3742 188.578 26.6557 189.002 26.9458C196.191 31.9451 198.128 35.8526 197.612 41.7253C197.579 42.319 197.547 42.9131 197.514 43.5248C197.155 47.3992 195.879 50.444 192.137 53.9381C192.137 54.0995 192.137 54.2608 192.137 54.4271C193.425 54.5178 193.425 54.5178 194.737 54.6099C197.612 54.9155 197.612 54.9155 199.801 55.8924C200.055 57.2379 200.164 58.5159 200.143 59.8615C200.14 60.2542 200.136 60.647 200.132 61.0517C199.976 64.9842 198.502 68.6808 196.516 72.5021C196.104 73.3116 196.104 73.3116 195.683 74.1377C194.923 75.5549 194.098 76.9591 193.232 78.3643C192.999 78.7776 192.766 79.1904 192.527 79.6162C190.796 82.3604 188.76 83.6354 183.378 85.2039C181.931 85.3877 180.472 85.556 178.999 85.6923C178.202 88.658 177.622 91.6226 177.455 94.6098C177.405 95.3452 177.405 95.3452 177.356 96.0952C178.078 97.8375 179.603 98.3465 182.762 99.3709C183.768 99.5748 184.774 99.7787 185.812 99.9891C192.312 101.8 194.758 105.596 197.612 108.653C198.073 109.141 198.534 109.629 199.01 110.131C210.598 123.418 208.778 139.253 198.707 152.62C196.809 151.35 195.383 150.144 193.916 148.773C188.19 143.685 179.223 140.707 167.241 138.777C163.976 138.349 161.549 138.124 158.195 138.453C155.13 140.29 154.196 141.988 153.337 144.223C153.204 144.553 153.071 144.883 152.934 145.222C152.088 147.357 151.367 149.497 150.677 151.643C147.372 161.663 147.373 161.663 140.678 165.81C135.496 169.16 131.847 172.242 129.288 176.136C128.757 176.935 128.153 177.725 127.538 178.512C126.816 178.672 126.093 178.834 125.349 179C125.339 178.727 125.329 178.454 125.318 178.173C125.259 176.911 125.168 175.651 125.075 174.39C125.059 173.96 125.044 173.531 125.028 173.089C124.497 166.658 116.728 162.272 106.522 157.951C103.51 156.703 100.458 155.476 97.4018 154.249C90.2468 151.358 84.1568 148.213 78.2686 144.803C73.8922 146.235 70.8985 147.759 67.731 149.719C61.9842 153.259 61.9842 153.259 59.6556 154.085C56.7132 153.933 56.7132 153.933 54.1818 153.597C51.7441 150.451 49.6261 147.283 47.6808 144.071C47.3966 143.604 47.1136 143.138 46.8217 142.657C45.0647 139.738 43.369 136.813 41.7954 133.873C41.6212 133.551 41.447 133.23 41.2675 132.898C39.1381 128.82 38.6026 124.854 38.5108 120.683C38.479 120.205 38.4472 119.728 38.4145 119.236C38.3551 116.171 39.3587 113.965 42.5 111.226C43.681 109.439 41.7816 108.296 39.9117 106.725C38.5771 105.46 37.9361 104.219 37.2405 102.856C36.9561 102.302 36.6717 101.748 36.3787 101.178C36.0887 100.602 35.7986 100.026 35.4998 99.432C35.2055 98.8594 34.9113 98.2868 34.6081 97.6972C32.3814 93.3319 32.3814 93.3319 31.7746 91.3982C31.5813 90.9664 31.3879 90.534 31.1887 90.0887C29.7501 89.745 28.2878 89.4204 26.8092 89.1118C25.2994 87.8544 25.2994 87.8544 24.0035 86.3335C23.5405 85.8045 23.0776 85.2755 22.6007 84.7305C21.974 83.9976 21.974 83.9976 21.3347 83.2496C20.774 82.6475 20.2059 82.0463 19.6239 81.4482C19.1045 80.9142 18.5852 80.3801 18.0501 79.8301C15.4107 77.1229 15.4107 77.1229 12.5756 74.4563C12.4106 73.7495 12.3034 73.0401 12.2292 72.3303C12.1833 71.915 12.1374 71.4992 12.0902 71.0709C12.0472 70.6365 12.0041 70.2017 11.9597 69.7544C11.9125 69.316 11.8651 68.8777 11.8164 68.4258C11.7001 67.3422 11.5885 66.2582 11.4807 65.1741C11.1194 66.4641 10.7581 67.7535 10.3859 69.0826C8.11535 67.5627 7.97686 67.2285 7.85386 65.5102C7.05301 61.216 3.24686 57.1683 -1.24739 53.3886C-8.89145 46.7073 -9.93329 38.1931 -4.94258 31.0389C0.1249 25.2239 6.60244 20.0366 15.8602 15.3451C16.5871 14.9509 17.314 14.5567 18.0629 14.1505C24.8094 10.6006 32.6711 7.82613 41.0427 5.08615C42.0603 4.73413 43.0782 4.38211 44.1266 4.01941C48.7225 2.84948 53.1167 2.47391 58.2874 2.06343C59.21 1.98312 60.1336 1.90287 61.084 1.82011C83.2265 -0.04545 116.148 -2.14937 134.604 4.83617Z" fill="#E9E9E9"/>
<path id="Vector_2" d="M132.284 5.15721C136.765 6.96248 139.85 8.83765 141 11.545C140.297 14.3638 138.225 16.9709 136.161 19.6327C134.529 21.7466 133.042 23.8497 131.782 26.0153C127.821 32.4689 127.821 32.4689 122.483 34.2611C118.485 34.9262 114.694 35.2971 110.495 35.6221C109.073 35.7843 107.656 35.9546 106.244 36.1325C93.4324 37.7328 80.3596 38.7839 67.1992 39.5881C43.1598 40.5232 43.1598 40.5232 23.4065 45.6643C21.2861 47.9705 21.0202 50.121 21.0147 52.6026C21.0134 53.2289 21.012 53.8552 21.0105 54.5002C21.0128 54.8252 21.015 55.1507 21.0174 55.4857C21.0231 56.4557 21.0169 57.4262 21.0105 58.3966C21.0199 62.6231 21.4534 66.7896 22.2489 71C19.8031 69.571 17.833 68.1123 15.8952 66.5317C14.5369 65.532 12.9943 64.6618 11.3543 63.7528C8.11448 61.8527 6.54756 59.9606 4.89428 57.6988C3.24354 55.6611 0.985392 53.7958 -1.3191 51.8946C-7.4828 45.5559 -7.38059 36.6339 -2.06376 30.2169C-1.59049 29.7304 -1.11722 29.2439 -0.629647 28.7427C-0.10017 28.1854 0.429308 27.628 0.974749 27.0537C10.7175 17.5797 29.6362 7.46333 51.6641 3.68313C57.4167 3.05339 63.2514 2.62782 69.096 2.20905C70.1958 2.12994 70.1958 2.12994 71.3177 2.04922C90.7895 0.695463 115.29 -0.248643 132.284 5.15721Z" fill="#010101"/>
<path id="Vector_3" d="M175.013 98C179.749 98.6666 183.415 99.19 186.796 100.861C190.984 104.526 188.372 109.351 185.8 113.085C181.133 118.988 174.526 124.144 166.794 129.287C163.071 131.776 159.786 134.368 156.558 136.994C156.124 137.312 155.69 137.631 155.244 137.96C150.132 141.97 149.39 147.023 148.263 151.559C146.945 156.773 145.6 161.124 139.188 165.622C138.2 166.325 138.2 166.325 137.191 167.043C135.892 167.96 134.585 168.876 133.268 169.789C131.029 171.473 129.652 173.13 128.333 175C127.975 175 127.616 175 127.247 175C127.125 174.338 127.125 174.338 127.002 173.662C125.331 166.68 117.612 160.983 105.536 156.521C102.179 155.218 99.7759 153.87 97.3943 152.202C96.9491 151.894 96.5039 151.586 96.0444 151.269C91.5251 148.057 87.492 144.722 83.4853 141.374C82.8479 140.845 82.2117 140.316 81.5555 139.772C78.405 137.093 75.6886 134.456 73.4185 131.597C71.3318 129.037 69.3864 127.532 65.0307 125.672C57.4648 122.25 51.251 117.96 48 113.302C48.538 112.569 48.538 112.569 49.0859 111.821C49.741 112.19 50.396 112.559 51.071 112.939C51.9382 113.425 52.8053 113.911 53.7001 114.412C54.5562 114.893 55.4123 115.374 56.295 115.87C58.7551 117.242 58.7551 117.242 61.3499 118.353C63.1981 119.225 63.1981 119.225 63.1981 120.212C63.8299 120.34 64.4607 120.469 65.1114 120.601C67.6963 121.237 69.5334 121.955 71.6797 122.865C81.7742 126.968 91.0987 127.464 104.232 127.211C110.389 126.982 116.048 126.097 121.82 125.147C122.517 125.039 123.215 124.931 123.934 124.819C132.68 123.454 139.81 122.106 145.702 118.731C146.897 118.112 148.096 117.495 149.298 116.88C149.919 116.551 150.541 116.221 151.181 115.881C152.74 115.073 154.341 114.28 155.964 113.498C165.923 108.685 171.265 104.396 175.013 98Z" fill="#020202"/>
<path id="Vector_4" d="M188.794 103C189.154 103 189.515 103 189.886 103C190.246 104.457 190.606 105.913 190.977 107.413C192.058 106.766 193.138 106.118 194.252 105.452C210.023 117.785 209.435 134.434 201.793 147.865C200.836 149.432 199.77 150.981 198.618 152.522C196.726 151.248 195.305 150.038 193.842 148.661C188.134 143.555 179.195 140.566 167.251 138.629C163.995 138.2 161.576 137.973 158.233 138.303C155.178 140.147 154.246 141.851 153.39 144.095C153.257 144.426 153.125 144.757 152.989 145.098C152.145 147.241 151.425 149.388 150.738 151.542C147.444 161.6 147.444 161.6 140.77 165.761C135.605 169.124 131.967 172.217 129.416 176.125C128.888 176.927 128.286 177.72 127.672 178.51C126.953 178.671 126.232 178.833 125.49 179C125.48 178.726 125.469 178.452 125.459 178.17C125.4 176.903 125.309 175.638 125.217 174.373C125.201 173.942 125.186 173.511 125.17 173.067C124.64 166.612 116.896 162.21 106.722 157.874C103.719 156.621 100.677 155.389 97.6304 154.158C90.4978 151.256 84.427 148.099 78.5572 144.677C74.1946 146.114 71.2102 147.644 68.0527 149.611C62.3239 153.164 62.3239 153.164 60.0027 153.994C57.0694 153.84 57.0694 153.84 54.546 153.503C52.1159 150.346 50.0046 147.166 48.0654 143.942C47.7821 143.474 47.5 143.006 47.209 142.523C45.4576 139.593 43.7671 136.658 42.1985 133.707C42.0247 133.384 41.8512 133.061 41.6722 132.729C39.5081 128.555 39.0665 124.55 39.0605 120.284C39.0472 119.78 39.0338 119.277 39.02 118.757C39.0179 118.273 39.0158 117.788 39.0137 117.289C39.0091 116.851 39.0047 116.414 39 115.963C39.281 114.697 40.023 113.897 41.4481 112.807C46.6326 112.745 46.6326 112.745 49.0883 113.297C50.0068 114.129 50.9164 114.962 51.7749 115.806C55.8033 119.761 60.5735 122.905 67.0797 126.11C71.3091 128.275 74.1268 130.256 76.2215 132.973C78.6061 136.06 81.8681 138.849 85.3788 141.705C86.0064 142.22 86.6339 142.735 87.2803 143.265C96.3199 150.901 96.3199 150.901 109.255 157.15C120.298 161.295 126.524 166.846 128.764 173.116C129.135 172.765 129.507 172.414 129.889 172.053C132.89 169.282 136.059 166.696 139.883 164.137C144.618 160.717 146.179 157.451 147.319 153.503C147.447 153.069 147.573 152.635 147.704 152.188C147.84 151.721 147.976 151.256 148.116 150.776C148.256 150.3 148.397 149.824 148.542 149.333C148.812 148.397 149.068 147.461 149.309 146.523C150.481 142.257 153.5 138.854 158.233 135.147C158.654 134.813 159.076 134.478 159.509 134.134C162.747 131.6 166.247 129.157 169.831 126.719C180.687 119.297 188.137 112.008 188.794 103Z" fill="#E8E8E8"/>
<path id="Vector_5" d="M159.97 11.8145C171.048 15.7738 179.516 21.4857 186.894 26.8109C187.649 27.353 187.649 27.353 188.417 27.9061C193.685 31.8181 196.261 34.9925 195.979 39.5775C195.962 39.9903 195.945 40.4032 195.928 40.8282C195.888 41.6422 195.838 42.4558 195.779 43.2694C195.715 44.1674 195.69 45.066 195.675 45.9646C195.364 49.6211 192.387 52.6477 187.935 55.7051C186.996 56.074 186.058 56.4428 185.091 56.8228C181.376 58.6761 180.825 60.3983 179.89 62.7975C179.713 63.2048 179.536 63.6116 179.353 64.031C178.362 66.3453 177.546 68.6655 176.838 71C174.732 69.5945 174.081 68.8092 173.259 67.2054C166.534 54.6396 155.125 41.5168 130.023 34.0535C128.017 33.0091 128.017 33.0091 128 31.5096C129.257 28.9439 131.365 26.4714 133.357 24.0047C133.929 23.2844 133.929 23.2844 134.512 22.5496C135.279 21.585 136.055 20.6215 136.838 19.6592C137.634 18.6677 138.405 17.6722 139.154 16.6735C139.527 16.1869 139.9 15.7002 140.284 15.1988C140.611 14.7599 140.937 14.321 141.275 13.8689C142.441 12.7801 142.441 12.7801 146.118 11.7008C155.838 10.7483 155.838 10.7483 159.97 11.8145Z" fill="#020202"/>
<path id="Vector_6" d="M133.739 4.83974C137.213 6.36091 140.207 7.93422 141.974 9.97873C141.974 10.624 141.974 11.2694 141.974 11.9343C142.751 11.7773 143.527 11.6204 144.327 11.4587C149.352 10.6454 154.167 10.6229 159.435 10.9565C162.299 11.8731 162.299 11.8731 164.89 13.4009C166.389 14.1042 167.891 14.8069 169.392 15.5092C175.953 18.7964 181.368 22.4195 186.716 26.1118C187.125 26.3936 187.534 26.6754 187.956 26.9657C195.121 31.9687 197.051 35.879 196.537 41.7561C196.505 42.3502 196.473 42.9447 196.439 43.5568C196.082 47.4341 194.81 50.4812 191.08 53.9779C191.08 54.1393 191.08 54.3008 191.08 54.4672C192.364 54.5579 192.364 54.5579 193.672 54.6502C196.537 54.956 196.537 54.956 198.719 55.9336C198.94 57.3383 199.028 58.6849 198.992 60.0891C198.988 60.4856 198.983 60.8817 198.98 61.2902C198.888 64.1503 198.273 66.8585 196.537 69.6223C196.177 69.6223 195.816 69.6223 195.446 69.6223C195.086 68.8157 194.726 68.009 194.354 67.1778C194.194 67.5378 194.034 67.8977 193.869 68.2682C191.62 72.6518 191.62 72.6518 187.739 74.1137C184.533 75 184.533 75 182.351 75C181.92 73.3306 181.519 71.6602 181.123 69.9887C180.94 69.2789 180.94 69.2789 180.752 68.555C180.647 68.0977 180.541 67.641 180.432 67.1703C180.33 66.7502 180.227 66.3306 180.121 65.8979C180.173 64.598 180.87 63.8816 182.351 62.7782C180.19 63.262 180.19 63.262 177.986 63.7558C178.715 60.5393 179.426 58.2622 184.397 55.8113C191.237 52.3351 192.968 48.737 193.264 44.2005C193.315 43.6716 193.315 43.6716 193.366 43.1322C194.081 36.3127 194.081 36.3127 188.898 30.0229C188.529 29.7352 188.16 29.4475 187.779 29.1511C182.052 24.7287 175.701 20.6722 168.164 16.8231C167.347 16.3977 166.529 15.9723 165.688 15.534C161.961 13.4639 161.961 13.4639 157.252 11.9343C151.603 11.7854 147.274 12.1367 141.974 12.912C141.705 13.4326 141.436 13.9531 141.16 14.4894C139.572 17.3336 137.448 20.0964 135.359 22.873C134.961 23.4067 134.564 23.9406 134.154 24.4905C131.215 28.4186 131.215 28.4186 129.97 29.534C129.25 29.534 128.53 29.534 127.788 29.534C130.256 25.0478 133.834 20.8289 137.634 16.5404C140.214 13.4233 139.997 11.3587 137.063 8.23707C132.649 5.09416 125.621 3.64257 117.83 2.73718C96.8239 0.633111 63.0361 0.37177 43.9785 5.40884C36.858 7.63694 30.4337 10.2483 24.1184 12.912C23.4475 13.1811 22.7764 13.4502 22.085 13.7274C5.28199 20.7361 -4.26613 30.7631 -5.18059 40.9053C-5.24811 41.8408 -5.29863 42.7763 -5.34549 43.7118C-5.70561 43.7118 -6.06573 43.7118 -6.43674 43.7118C-8.99178 33.8181 -2.79556 25.5018 10.9551 17.6481C12.4195 16.879 13.8973 16.1151 15.3883 15.3564C16.1128 14.9619 16.8373 14.5674 17.5836 14.1609C24.3078 10.6084 32.1434 7.8319 40.4873 5.0899C41.5014 4.73762 42.5161 4.38534 43.561 4.02238C48.1416 2.85158 52.5213 2.47573 57.6749 2.06495C58.5943 1.98459 59.5149 1.90427 60.4621 1.82145C82.5313 -0.0454835 115.344 -2.15095 133.739 4.83974Z" fill="#D5D5D5"/>
<path id="Vector_7" d="M183.603 62C183.952 62.3235 184.301 62.6464 184.661 62.9799C184.312 63.3029 183.963 63.6263 183.603 63.9593C184.301 64.121 185 64.2828 185.72 64.449C184.672 64.7725 183.624 65.0954 182.545 65.4284C182.719 66.0447 182.894 66.661 183.073 67.2958C183.72 69.9417 183.699 72.565 183.603 75.2245C189.09 73.8498 189.09 73.8498 192.138 71.4304C192.657 70.4686 193.129 69.5008 193.548 68.5279C193.759 68.1517 193.97 67.7755 194.189 67.3877C194.887 67.226 195.586 67.0648 196.305 66.898C198.239 71.1467 195.799 74.6143 193.13 78.6529C192.875 79.104 192.622 79.5545 192.361 80.0191C190.737 82.7243 188.753 83.9849 183.603 85.5103C180.626 85.9387 180.626 85.9387 178.31 86C176.086 84.9704 176.857 82.775 176.723 81.3471C177.116 76.2265 177.116 76.2265 174.076 71.7961C174 70.9704 173.988 70.1431 174.01 69.3164C174.02 68.8664 174.03 68.4159 174.039 67.9523C174.051 67.6042 174.063 67.2567 174.076 66.898C174.426 66.898 174.775 66.898 175.135 66.898C175.484 67.7062 175.834 68.5143 176.194 69.3471C177.242 67.5691 178.289 65.7911 179.369 63.9593C180.067 63.9593 180.766 63.9593 181.486 63.9593C182.185 63.3129 182.883 62.666 183.603 62Z" fill="#E3E3E3"/>
<path id="Vector_8" d="M33.0554 64C36.566 64.0154 39.7277 64.1945 43.1479 64.5104C49.0837 65.05 54.9651 65.1696 61.0267 65.251C65.0961 65.3222 66.9557 65.4097 70.4313 66.3537C70.7441 67.6266 70.7294 68.3798 69.3185 69.5294C71.5226 69.9783 73.7279 70.4278 76 70.8907C76 71.04 76 71.1898 76 71.3443C68.5298 70.993 61.1378 70.5013 53.7276 69.983C53.935 70.4143 54.1435 70.8451 54.3577 71.2894C54.8405 72.7051 54.8405 72.7051 53.6574 73.5844C50.4855 74.293 48.2315 73.9524 44.8182 73.6128C44.4511 72.8642 44.0828 72.1156 43.7043 71.3443C41.4995 71.7932 39.2945 72.2427 37.0227 72.7051C37.3347 71.1801 37.8872 70.5441 40.5028 69.4159C44.2312 68.4914 47.1821 68.3063 51.4997 68.1681C43.2431 67.3348 35.4893 67.1539 27 67.2609C28.1523 64.1089 28.1523 64.1089 33.0554 64Z" fill="#0B0B0B"/>
<path id="Vector_9" d="M149.295 60.6079C150.91 60.935 150.91 60.935 152.557 61.2683C153.363 61.4358 154.17 61.6027 155 61.7751C155 62.0913 155 62.407 155 62.733C153.651 62.7684 152.303 62.8042 150.913 62.841C135.702 63.3256 122.082 64.8286 107.716 66.9748C106.828 67.1064 105.939 67.238 105.024 67.373C104.226 67.4933 103.429 67.6136 102.606 67.7373C100.453 68 100.453 68 97.1135 68C96.7465 66.8938 96.3784 65.7875 96 64.6479C100.266 62.8901 105.456 62.5867 111.029 62.0446C118.646 61.2747 125.981 60.4184 133.285 59.1904C139.167 58.5835 144.015 59.5277 149.295 60.6079Z" fill="#090909"/>
<path id="Vector_10" d="M184 56C184 56.4953 184 56.9901 184 57.5002C184.598 57.531 185.196 57.5618 185.813 57.5941C188.872 58.1622 189.551 59.0866 191 60.5002C191.99 60.3351 192.98 60.17 194 60.0003C194 61.8153 194 63.6298 194 65.5003C193.011 65.6648 192.021 65.8299 191 66.0002C191.331 66.3298 191.66 66.66 192 67C192.255 69.2503 192.251 71.0172 190.001 72.9999C185.676 75 185.676 75 183 75C182.606 73.2926 182.238 71.5842 181.875 69.8748C181.763 69.3908 181.651 68.9068 181.535 68.4084C181.438 67.9408 181.342 67.4737 181.242 66.9923C181.148 66.5626 181.054 66.1335 180.957 65.691C181.005 64.3615 181.643 63.6288 183 62.5003C181.02 62.9951 181.02 62.9951 179 63.5001C180.132 57.934 180.132 57.934 184 56Z" fill="#E4E4E4"/>
<path id="Vector_11" d="M129 103.028C128.641 103.506 128.283 103.982 127.913 104.474C124.938 104.892 122.118 105.216 119.075 105.498C118.261 105.579 117.449 105.66 116.611 105.744C106.668 106.719 97.1588 106.971 86.9867 106.973C85.6662 106.979 84.3457 106.985 82.9843 106.992C81.7114 106.992 80.4385 106.993 79.1268 106.994C77.9724 106.996 76.819 106.998 75.6313 107C72.3484 106.88 69.9697 106.533 67 105.919C67 105.602 67 105.283 67 104.956C68.3404 104.927 69.6808 104.898 71.0622 104.867C80.0832 104.666 89.0798 104.443 98.0764 104.079C100.72 103.992 100.72 103.992 104.662 104.022C107.901 103.996 110.497 103.815 113.637 103.51C118.873 103.005 123.651 102.952 129 103.028Z" fill="#070707"/>
<path id="Vector_12" d="M151.969 141C154.783 142.834 154.089 143.927 153.322 145.984C153.143 146.502 153.143 146.502 152.959 147.031C152.703 147.763 152.44 148.495 152.17 149.227C151.764 150.334 151.382 151.443 151.004 152.552C149.23 157.609 146.604 161.71 140.267 166.059C136.554 168.679 133.258 171.258 130.666 174.128C130.044 174.795 130.044 174.795 129.41 175.475C128.32 176.648 127.245 177.823 126.182 179C125.811 179 125.441 179 125.06 179C125.044 178.591 125.044 178.591 125.028 178.175C124.968 176.917 124.874 175.66 124.78 174.402C124.764 173.974 124.748 173.546 124.732 173.105C124.352 168.633 121.087 165.428 114.339 162.04C111.454 160.575 108.616 159.122 106 157.564C111.41 157.969 113.564 159.493 116.721 161.309C117.261 161.608 117.801 161.906 118.357 162.214C123.05 164.859 126.293 167.312 127.513 170.657C127.69 171.128 127.868 171.599 128.052 172.084C128.174 172.437 128.297 172.79 128.424 173.154C128.805 172.805 129.187 172.457 129.58 172.097C132.662 169.345 135.917 166.775 139.846 164.232C144.715 160.829 146.287 157.59 147.484 153.667C147.783 152.741 148.082 151.814 148.382 150.888C149.112 148.607 149.804 146.324 150.465 144.038C150.829 143.002 151.343 142.011 151.969 141Z" fill="#CDCDCD"/>
<path id="Vector_13" d="M137.747 65.6734C140.783 66.519 141.857 67.1151 143 68.6235C136.579 68.3096 130.156 67.9958 123.54 67.6726C123.54 68.4568 123.54 69.241 123.54 70.0491C120.297 71 120.297 71 117.729 70.8513C116.793 70.7436 115.857 70.6354 114.891 70.5243C112.074 70.1812 112.074 70.1812 109.486 70.0491C108.772 70.363 108.059 70.6764 107.323 71C105.897 71 104.47 71 103 71C103.223 70.1422 103.223 70.1422 104.08 69.0987C106.323 68.3228 106.323 68.3228 109.149 67.6132C110.067 67.3768 110.985 67.1404 111.932 66.8967C119.713 65.1884 129.31 64.2994 137.747 65.6734Z" fill="#0E0E0E"/>
<path id="Vector_14" d="M197.459 55.4022C200.372 56.6766 199.971 57.5927 199.992 59.3292C199.981 59.7194 199.971 60.1096 199.961 60.5113C199.957 60.906 199.952 61.3002 199.949 61.7069C199.855 64.5536 199.228 67.2491 197.459 70C197.092 70 196.724 70 196.346 70C195.979 69.1971 195.613 68.3943 195.234 67.5669C194.5 67.8883 193.766 68.2091 193.01 68.54C192.643 67.8978 192.275 67.2556 191.897 66.5939C192.632 66.4333 193.366 66.2726 194.122 66.1074C194.643 64.849 194.643 64.849 194.817 63.4004C194.9 62.9079 194.983 62.4159 195.069 61.9085C195.124 61.5277 195.178 61.147 195.234 60.7548C193.032 61.2363 193.032 61.2363 190.786 61.7278C190.051 60.7643 189.317 59.8008 188.561 58.8083C186.726 58.8083 184.89 58.8083 183 58.8083C185.562 56.0933 185.562 56.0933 188.978 55.1891C192.274 54.8803 194.264 54.9486 197.459 55.4022Z" fill="#EAEAEA"/>
<path id="Vector_15" d="M114.75 110C115.492 110.174 116.235 110.348 117 110.527C115.791 111.212 114.57 111.893 113.344 112.572C112.665 112.951 111.987 113.331 111.288 113.721C107.775 115.388 105.384 115.767 100.406 116C92.6962 115.906 86.6529 113.902 81 111.582C81.3721 111.234 81.743 110.886 82.1253 110.527C82.9942 110.53 83.862 110.533 84.7572 110.536C88.6849 110.547 92.6115 110.553 96.5393 110.56C97.9062 110.565 99.273 110.569 100.681 110.574C101.99 110.576 103.299 110.577 104.648 110.579C105.856 110.582 107.062 110.584 108.307 110.587C111.482 110.592 111.482 110.592 114.75 110Z" fill="#0E0E0E"/>
<path id="Vector_16" d="M120.353 50.0146C121.946 50.0291 121.946 50.0291 123.572 50.0436C124.373 50.0554 125.174 50.0678 126 50.0802C123.275 51.3932 121.293 51.5385 117.571 51.9984C116.322 52.156 115.071 52.3131 113.783 52.4755C112.47 52.6374 111.158 52.7988 109.807 52.9656C107.222 53.2856 104.64 53.6078 102.059 53.9327C100.336 54.1452 100.336 54.1452 98.5765 54.362C95.5756 54.745 95.5756 54.745 93.1928 55.3728C89.6436 56.2087 85.7144 55.9784 81.8428 55.9489C80.9156 55.9456 79.9884 55.9419 79.0335 55.9386C66.0163 55.8671 53.0047 55.5922 40 55.326C43.1014 54.4803 45.3136 54.1468 48.8694 54.1511C49.7501 54.149 50.6308 54.1474 51.538 54.1452C52.4851 54.1474 53.4312 54.1495 54.4071 54.1517C56.4465 54.1436 58.4858 54.135 60.5263 54.1264C63.7144 54.1178 66.9014 54.113 70.0906 54.1167C85.2469 54.1232 97.5009 53.3593 111.577 50.5267C114.622 49.9715 117.11 49.9769 120.353 50.0146Z" fill="#2C2C2C"/>
<path id="Vector_17" d="M117 48.0105C114.318 49.2336 112.119 49.5 108.523 50.0364C106.841 50.2921 106.841 50.2921 105.123 50.5524C98.0634 51.4774 91.2485 51.5991 83.9572 51.6589C82.8976 51.6692 81.8392 51.6799 80.7473 51.6901C77.3827 51.7229 74.017 51.7525 70.6524 51.7817C68.3629 51.8031 66.0746 51.8251 63.7863 51.8471C58.1912 51.9003 52.5951 51.9509 47 52C47 51.6707 47 51.3414 47 51.0024C47.6044 50.986 48.2087 50.9696 48.8309 50.9523C55.1305 50.7794 61.4301 50.6005 67.7274 50.4184C70.077 50.3509 72.4276 50.285 74.7772 50.221C78.1585 50.1285 81.5375 50.0303 84.9177 49.9311C85.9662 49.9035 87.0146 49.8759 88.0954 49.8478C93.0671 49.6969 97.1307 49.5011 101.687 48.5091C106.843 48.0739 111.763 47.9619 117 48.0105Z" fill="#1D1D1D"/>
<path id="Vector_18" d="M182.201 65C182.976 65 183.752 65 184.551 65C184.939 65.3145 185.328 65.6289 185.727 65.9527C187.669 66.2867 189.629 66.6046 191.604 66.9049C192.78 67.381 192.78 67.381 193 68.9284C192.7 71.3616 191.939 72.5292 187.49 74.1963C184.551 75 184.551 75 182.201 75C181.971 73.6015 181.752 72.2025 181.54 70.8035C181.474 70.407 181.408 70.01 181.34 69.6013C181.282 69.219 181.226 68.8366 181.168 68.443C181.112 68.0915 181.056 67.7399 181 67.3776C181.025 66.4288 181.025 66.4288 182.201 65Z" fill="#0F0F0F"/>
<path id="Vector_19" d="M109.608 50C109.608 50.2909 109.608 50.5823 109.608 50.8823C111.057 51.0279 112.506 51.1736 114 51.3234C111.714 51.6831 109.426 52.0414 107.137 52.3988C105.864 52.5988 104.59 52.7984 103.277 53.0038C98.6444 53.6897 95.0521 54.0276 90.118 53.9982C89.2397 53.9946 88.3626 53.9905 87.4587 53.9865C86.7961 53.981 86.1335 53.9761 85.4508 53.9706C85.0888 53.534 84.7268 53.0974 84.3525 52.6472C75.6562 52.5016 66.96 52.3559 58 52.2061C58 52.0604 58 51.9147 58 51.7645C59.0291 51.7582 60.0581 51.7519 61.1174 51.7451C64.9979 51.7179 68.8773 51.6853 72.7578 51.6492C74.4249 51.6342 76.0931 51.622 77.7602 51.6121C87.1961 51.5532 95.8455 51.3478 104.981 50.2787C107.411 50 107.411 50 109.608 50Z" fill="#DADADA"/>
<path id="Vector_20" d="M25.6785 10C26.7746 10.165 27.8707 10.33 29 10.5C28.2364 10.8216 27.4729 11.1432 26.6862 11.4746C5.78017 20.5534 -4.67315 30.9561 -5.32141 44C-5.68677 44 -6.05213 44 -6.42854 44C-9.02077 33.8814 -2.73436 25.376 11.2164 17.3437C12.6943 16.5542 14.1947 15.7731 15.7142 15C16.6291 14.5327 17.5439 14.0654 18.4864 13.5839C20.8659 12.3816 23.2621 11.1872 25.6785 10Z" fill="#C4C4C4"/>
<path id="Vector_21" d="M-7.87495 38C-7.51238 38 -7.14981 38 -6.77629 38C-6.64313 38.4814 -6.50998 38.9628 -6.3728 39.4588C-6.1871 40.1102 -6.00107 40.7621 -5.81492 41.4136C-5.63648 42.0473 -5.45805 42.6811 -5.27414 43.3335C-4.02354 47.2073 -1.98619 50.5179 1.94449 54.0228C4.23406 56.0981 6.44446 58.1488 8.21896 60.3256C9.49259 61.857 10.6261 62.8642 13 64.0792C12.6374 64.4042 12.2749 64.7286 11.9012 65.0632C11.5388 65.0632 11.1762 65.0632 10.8026 65.0632C10.44 66.3625 10.0774 67.6613 9.7039 69C7.42552 67.4691 7.28666 67.1325 7.16323 65.4018C6.35961 61.0764 2.54017 56.9993 -1.96953 53.1922C-7.6338 48.2785 -8.36151 43.4566 -7.87495 38Z" fill="#D9D9D9"/>
<path id="Vector_22" d="M129 103.028C128.656 103.446 128.312 103.863 127.957 104.294C125.058 104.669 122.312 104.961 119.348 105.216C118.152 105.328 118.152 105.328 116.931 105.442C112.892 105.807 109.166 106.078 105 105.98C105 105.423 105 104.867 105 104.294C113.119 103.509 120.635 102.854 129 103.028Z" fill="#090909"/>
<path id="Vector_23" d="M193.401 55C195.216 55.1712 197.032 55.3424 198.902 55.5184C198.932 56.9875 198.953 58.4567 198.971 59.9258C198.98 60.3363 198.989 60.7468 198.999 61.1695C199.022 63.8291 198.615 66.3675 197.802 69C197.438 69 197.076 69 196.702 69C195.975 65.4067 195.25 61.8134 194.501 58.1111C192.686 58.1111 190.871 58.1111 189 58.1111C189 57.598 189 57.0843 189 56.5553C190.815 56.3846 192.631 56.2134 194.501 56.0368C194.138 55.695 193.775 55.3525 193.401 55Z" fill="#E3E3E3"/>
<path id="Vector_24" d="M80 75C84.7537 76.7674 84.7383 79.1641 85.4188 81.7741C86.4059 86.7534 86.4059 86.7534 83.2515 88.8811C82.5357 89.2502 81.821 89.6199 81.0831 90C80.7257 89.6809 80.3684 89.3614 80 89.0324C80.536 88.3139 80.536 88.3139 81.0831 87.5805C81.189 86.2651 81.2364 84.9646 81.2188 83.6492C81.2154 83.0964 81.2155 83.0964 81.2121 82.5323C81.1691 79.9902 80.8206 77.5182 80 75Z" fill="#2C2C2C"/>
<path id="Vector_25" d="M21 82C24.7516 82.6611 26.6191 83.3478 28.7376 84.824C30.4396 86.6162 31.2154 88.0688 30.9485 90C27.5785 89.5068 26.6281 89.1377 24.8861 87.7816C24.1936 87.0308 24.1936 87.0308 23.4871 86.2649C23.014 85.7655 22.5409 85.2665 22.0535 84.7521C21 83.412 21 83.412 21 82Z" fill="#A0A0A0"/>
<path id="Vector_26" d="M18.4696 72C19.2273 72 19.985 72 20.7658 72C21.3753 72.9026 21.9706 73.8076 22.5597 74.7125C22.8927 75.216 23.2256 75.7194 23.5688 76.2382C24.21 77.6002 24.21 77.6002 23.0619 79C20.0594 78.1692 17.3634 77.336 15.0253 76.1999C14.9535 74.4498 14.9535 74.4498 16.1734 72.9332C16.9311 72.625 17.6889 72.3173 18.4696 72Z" fill="#161616"/>
<path id="Vector_27" d="M183.999 56C183.999 56.5283 183.999 57.0561 183.999 57.6002C184.618 57.6221 185.237 57.644 185.875 57.6669C186.576 57.8206 187.277 57.9748 187.999 58.1334C189.25 59.7665 189.25 59.7665 190 61.3333C188.187 61.6998 188.187 61.6998 186 61.8666C184.25 61.0998 184.25 61.0998 183 60.2669C182.34 61.4985 181.679 62.7307 181 64C180.34 64 179.68 64 179 64C180.132 58.0629 180.132 58.0629 183.999 56Z" fill="#D9D9D9"/>
<path id="Vector_28" d="M120.257 50.0117C121.877 50.0256 121.877 50.0256 123.53 50.0395C124.345 50.0509 125.16 50.0627 126 50.0746C122.207 51.7973 116.824 52.0814 111.745 52.7146C110.631 52.862 109.515 53.01 108.367 53.1621C107.293 53.2972 106.218 53.4318 105.111 53.571C104.128 53.6963 103.144 53.8216 102.131 53.9505C98.9815 54.1217 97.6397 53.852 95 53.0915C95.8945 52.9579 96.7891 52.8244 97.7106 52.6867C98.8947 52.5093 100.078 52.332 101.297 52.1489C103.05 51.8865 103.05 51.8865 104.839 51.6183C108.213 51.1166 108.213 51.1166 111.088 50.5144C114.299 49.9977 116.861 49.9745 120.257 50.0117Z" fill="#1D1D1D"/>
<path id="Vector_29" d="M106 158C111.347 158.386 113.475 159.839 116.595 161.569C117.128 161.854 117.662 162.138 118.212 162.432C123.325 165.211 126.463 167.376 125.944 171C124.818 170.087 123.768 169.187 122.892 168.227C120.283 165.401 116.356 163.301 111.674 161.009C109.678 160.031 107.809 159.039 106 158Z" fill="#D9D9D9"/>
<path id="Vector_30" d="M25.55 10C26.6885 10.165 27.8271 10.33 29 10.5C28.1803 10.839 27.3605 11.178 26.5158 11.5273C19.5282 14.4635 13.5419 17.4141 8.29998 21C7.54096 20.67 6.78195 20.34 6 20C12.2146 16.5397 18.717 13.2322 25.55 10Z" fill="#D5D5D5"/>
<path id="Vector_31" d="M107.333 89C110.846 89.6393 111.769 89.9284 114 91.3333C114 92.7039 114 92.7039 112.889 94.1332C109.486 95.2415 109.486 95.2415 106.223 96C105.489 95.8459 104.756 95.6918 104 95.533C105.1 94.6094 106.2 93.6853 107.333 92.733C108.8 92.8871 110.267 93.0412 111.777 93.2001C110.602 91.6118 109.546 90.3935 107.333 89Z" fill="#4E4E4E"/>
<path id="Vector_32" d="M95.1996 74C95.5821 74 95.9645 74 96.3588 74C97.3644 75.8949 98.35 77.7909 99.3321 79.6878C99.6178 80.227 99.9046 80.7656 100.2 81.3211C100.465 81.838 100.73 82.3545 101.004 82.8867C101.253 83.3636 101.502 83.8401 101.758 84.3309C102.159 85.5558 102.159 85.5558 100.999 87C96.9194 82.5732 94.2258 78.8193 95.1996 74Z" fill="#262626"/>
<path id="Vector_33" d="M87.309 50.0033C89.1945 50.0114 89.1945 50.0114 91.1184 50.0201C92.0702 50.0269 93.0207 50.0338 94 50.0412C92.8351 50.9417 92.8352 50.9417 91.6476 51.8602C88.5564 51.9945 85.7539 52.0312 82.6771 51.974C81.8451 51.9659 81.0142 51.9578 80.1583 51.9491C78.1051 51.9279 76.052 51.895 74 51.8602C74 51.4603 74 51.0598 74 50.6475C78.5145 50.099 82.6771 49.9772 87.309 50.0033Z" fill="#0F0F0F"/>
<path id="Vector_34" d="M91 151C95.7418 152.323 99.4911 153.685 103.376 155.5C104.42 155.964 105.464 156.428 106.539 156.906C107.351 157.267 108.163 157.628 109 158C103.374 157.812 100.548 156.515 96.8363 154.781C96.2707 154.529 95.7064 154.278 95.1236 154.019C91 152.141 91 152.141 91 151Z" fill="#EBEBEB"/>
<path id="Vector_35" d="M129 103.014C128.67 103.407 128.341 103.8 128.001 104.206C125.934 104.496 125.934 104.496 123.438 104.677C122.611 104.74 121.785 104.803 120.933 104.868C119.977 104.933 119.977 104.933 119 105C118.67 104.607 118.34 104.213 118 103.808C115.984 103.517 115.984 103.517 114 103.411C119.05 103 123.874 102.973 129 103.014Z" fill="#1F1F1F"/>
<path id="Vector_36" d="M134.111 66C137.202 66.1877 139.209 66.3364 141.681 67.2188C143 67.9997 143 67.9997 143 69C136.4 68.6698 129.8 68.3396 123 67.9997C123 67.8351 123 67.67 123 67.4997C126.667 67.4997 130.333 67.4997 134.111 67.4997C134.111 67.005 134.111 66.5097 134.111 66Z" fill="#363636"/>
<path id="Vector_37" d="M126.089 65C127.855 65.0079 127.855 65.0079 129.657 65.0159C130.837 65.0201 132.017 65.0243 133.234 65.0285C134.603 65.0364 134.603 65.0364 136 65.0444C135.615 65.646 135.23 66.2471 134.833 66.8664C133.133 66.9033 131.432 66.9299 129.73 66.9519C128.782 66.9678 127.835 66.9837 126.859 67C126.026 66.9561 125.192 66.9117 124.334 66.8664C123.564 66.4157 122.794 65.9645 122 65.5002C123.167 65.0444 123.167 65.0444 126.089 65Z" fill="#040404"/>
<path id="Vector_38" d="M132 64.362C132 64.6524 132 64.9423 132 65.2412C130.631 65.3214 130.631 65.3214 129.236 65.403C128.025 65.4765 126.816 65.55 125.569 65.6262C124.374 65.6975 123.181 65.7692 121.951 65.8426C118.495 66.1095 115.349 66.5004 112.049 67C111.703 66.7101 111.357 66.4197 111 66.1208C113.709 65.7394 116.42 65.3652 119.138 64.9941C119.904 64.8855 120.67 64.7768 121.458 64.665C122.203 64.5645 122.948 64.4639 123.715 64.3602C124.738 64.2186 124.738 64.2186 125.78 64.0744C128.151 63.8958 129.726 64.0572 132 64.362Z" fill="#BFBFBF"/>
<path id="Vector_39" d="M67 105C72.9394 105 78.8799 105 85 105C85 105.165 85 105.33 85 105.5C81.8313 105.5 78.6638 105.5 75.3998 105.5C75.3998 105.83 75.3998 106.16 75.3998 106.5C76.1911 106.665 76.9836 106.83 77.7993 107C74.6318 106.835 71.4643 106.67 68.2003 106.5C67.8035 106.005 67.4078 105.51 67 105Z" fill="#202020"/>
<path id="Vector_40" d="M157.457 135C157.832 135.66 158.207 136.32 158.593 137C159.717 137 160.842 137 162 137C162 137.33 162 137.66 162 138C161.133 138.103 160.266 138.206 159.374 138.312C155.387 139.21 154.588 140.216 152.914 142C151.705 140.635 151.687 140.103 152.91 138.711C153.45 138.27 153.99 137.829 154.547 137.375C155.084 136.929 155.622 136.483 156.175 136.023C156.598 135.686 157.021 135.348 157.457 135Z" fill="#D7D6D7"/>
<path id="Vector_41" d="M78.112 91C79.0842 91.9229 79.0842 91.9229 78.9626 93.2789C78.7766 94.6903 78.7766 94.6903 80.5421 95.5001C81.0228 95.6904 81.5045 95.8807 82 96.0771C82 96.3814 82 96.6862 82 97C77.2614 96.1348 77.2614 96.1348 76.1685 95.6151C75.8194 92.6329 75.8194 92.6329 78.112 91Z" fill="#181818"/>
<path id="Vector_42" d="M194.6 60C194.996 60 195.392 60 195.8 60C196.195 63.3003 196.592 66.6002 197 70C196.604 70 196.208 70 195.8 70C195.404 69.175 195.009 68.3501 194.6 67.5C193.808 67.8302 193.016 68.1599 192.2 68.4998C191.805 67.8399 191.408 67.1801 191 66.5002C191.792 66.3351 192.585 66.17 193.4 66.0003C193.963 64.5924 193.963 64.5924 194.15 62.9691C194.239 62.4164 194.33 61.8642 194.422 61.2951C194.481 60.868 194.54 60.4404 194.6 60Z" fill="#F3F3F3"/>
<path id="Vector_43" d="M42.7494 5C43.4923 5.1375 44.2353 5.27499 45 5.41664C37.2037 7.68542 37.2037 7.68542 29.25 10C28.5075 9.8625 27.7649 9.72501 27 9.58332C28.5649 9.05167 30.1366 8.5227 31.7109 7.99476C32.5853 7.6999 33.4598 7.40504 34.3607 7.1012C37.0582 6.27054 39.6192 5.58656 42.7494 5Z" fill="#DEDEDE"/>
<path id="Vector_44" d="M188 103C188.331 103 188.66 103 189 103C189.049 103.344 189.098 103.687 189.149 104.041C189.223 104.486 189.298 104.931 189.375 105.39C189.445 105.833 189.514 106.276 189.586 106.734C189.723 107.101 189.859 107.468 190 107.846C190.66 108.024 191.32 108.201 192 108.384C192 108.917 192 109.451 192 110C190.68 109.822 189.36 109.644 188 109.461C188 107.329 188 105.197 188 103ZM192 105.692C192.99 105.959 192.99 105.959 194 106.231C193.34 106.942 192.679 107.652 192 108.384C192 107.496 192 106.608 192 105.692Z" fill="#711313"/>
<path id="Vector_45" d="M174 65C175.32 65.1651 176.641 65.3302 178 65.4999C177.67 67.315 177.34 69.1301 177 71C174.977 69.4823 174.679 68.9029 174.375 67.1566C174.3 66.7525 174.226 66.348 174.149 65.9316C174.1 65.6245 174.051 65.3169 174 65Z" fill="#080808"/>
<path id="Vector_46" d="M10.3596 65C10.7953 65 11.2309 65 11.6798 65C12.1155 67.3103 12.5512 69.62 13 72C12.1286 72 11.2573 72 10.3596 72C7.07079 69.6554 7.81493 68.0291 9.03936 65.4999C9.47504 65.3353 9.91059 65.1702 10.3596 65Z" fill="#626262"/>
<path id="Vector_47" d="M43.3329 111C44.1035 111 44.874 111 45.6671 111C46.9065 111.906 46.9065 111.906 48 113C47.6153 113.495 47.2307 113.99 46.8341 114.5C45.2931 114.17 43.7532 113.84 42.1667 113.5C41.7817 113.995 41.3967 114.49 41 115C42.0209 111.562 42.0209 111.562 43.3329 111Z" fill="#F1F1F1"/>
<path id="Vector_48" d="M54 70C58.2896 70.1651 62.5803 70.3302 67 70.4999C67 70.9952 67 71.49 67 72.0002C63.3884 71.6669 59.7779 71.3336 56.1663 71.0003C55.8091 71.6602 55.4508 72.3201 55.0826 73C54.7254 72.0099 54.3682 71.0203 54 70Z" fill="#D7D7D7"/>
<path id="Vector_49" d="M190 57.0157C192.254 56.9942 194.509 56.9953 196.762 57.0157C197.89 57.5143 197.89 57.5143 198 58.7631C197.986 59.2664 197.974 59.7696 197.96 60.2881C197.95 60.7928 197.939 61.2976 197.929 61.8172C197.916 62.2079 197.903 62.598 197.89 63C197.517 63 197.146 63 196.762 63C196.212 61.9936 195.661 60.9867 195.111 59.9803C194.066 58.2993 193.46 58.0359 190 57.0157Z" fill="#1F1F1F"/>
<path id="Vector_50" d="M108.572 90C109.703 90.1834 110.835 90.3669 112 90.556C112 91.4726 112 92.3892 112 93.3337C110.492 93.3337 108.983 93.3337 107.428 93.3337C105.428 94.1204 105.428 94.1204 104 95C105.371 93.287 106.832 91.6321 108.572 90Z" fill="#EFEFEF"/>
<path id="Vector_51" d="M182.334 62C182.608 62.3302 182.883 62.6599 183.166 63.0003C182.892 63.33 182.617 63.6602 182.334 64.0002C182.883 64.1653 183.434 64.3304 184 64.5001C183.175 64.8303 182.35 65.16 181.5 65.4999C181.291 66.792 181.291 66.792 181.5 68C181.225 67.3401 180.95 66.6802 180.666 66.0003C180.117 66.0003 179.567 66.0003 179 66.0003C179 65.3399 179 64.6801 179 64.0002C179.55 64.0002 180.1 64.0002 180.666 64.0002C181.217 63.3403 181.766 62.6799 182.334 62Z" fill="#F1F1F1"/>
<path id="Vector_52" d="M185.334 59C186.489 59.1651 187.644 59.3302 188.833 59.4999C189.636 60.5315 189.636 60.5315 190 61.5001C188.459 61.6652 186.92 61.8303 185.334 62C184.563 61.3401 183.794 60.6802 183 59.9998C183.77 59.6701 184.541 59.3399 185.334 59Z" fill="#101010"/>
<path id="Vector_53" d="M175 97C177.008 97.5455 179.007 98.0993 181.001 98.6561C182.114 98.9637 183.228 99.2708 184.376 99.5877C185.241 99.8886 186.109 100.19 187 100.5C187 100.995 187 101.49 187 102C186.317 101.789 185.633 101.579 184.93 101.361C184.038 101.087 183.147 100.814 182.227 100.531C181.341 100.258 180.455 99.9861 179.543 99.7051C177.261 98.9945 177.261 98.9945 175 98.4997C175 98.0049 175 97.5102 175 97Z" fill="#CDCDCD"/>
<path id="Vector_54" d="M196.063 60C196.431 60 196.8 60 197.179 60C199.081 63.2199 199.561 65.702 198.296 69C197.927 69 197.559 69 197.179 69C195.812 66 195.96 63.051 196.063 60Z" fill="#C6C6C6"/>
<path id="Vector_55" d="M44.1002 110C45.7119 110.55 47.3225 111.099 48.9343 111.649C50.5516 112.174 52.273 112.646 54 113.111C52.911 113.404 51.8219 113.698 50.6993 114C48.1004 113.045 46.7584 112.148 45.2005 110.889C44.4741 110.742 43.7488 110.595 43 110.444C43.3638 110.298 43.7264 110.151 44.1002 110Z" fill="#CCCCCC"/>
<path id="Vector_56" d="M24 85C25.188 85.1835 26.376 85.3663 27.5999 85.5555C28.4766 86.5822 28.4766 86.5822 29.025 87.8128C29.2152 88.2201 29.4055 88.6275 29.6016 89.0474C29.7988 89.5191 29.7988 89.5191 30 90C26.3999 89.4445 26.4 89.4445 24.975 88.4378C24 87.222 24 87.222 24 85Z" fill="#ECECEC"/>
<path id="Vector_57" d="M80 53C82.7223 53.1238 82.7223 53.1238 85.4994 53.2499C85.4994 53.415 85.4994 53.5799 85.4994 53.7498C87.315 53.7498 89.1295 53.7498 91 53.7498C91 53.8324 91 53.9149 91 54C88.0952 54 85.1916 54 82.1995 54C81.4731 53.6698 80.7477 53.3399 80 53Z" fill="#D9D9D9"/>
<path id="Vector_58" d="M25.6249 10C26.7387 10.165 27.8525 10.33 29 10.5C26.4012 11.655 23.8024 12.81 21.125 14C20.7537 13.505 20.3825 13.01 20 12.5C21.8562 11.675 23.7124 10.85 25.6249 10Z" fill="#BCBCBC"/>
<path id="Vector_59" d="M13.8781 72C14.9083 72.1651 15.9386 72.3302 17 72.4999C16.2195 75.8751 16.2196 75.8751 13.8781 77C12.7073 73.1249 12.7073 73.1249 13.8781 72Z" fill="#F0F0F0"/>
<path id="Vector_60" d="M104 51C104 51.3962 104 51.792 104 52.2002C103.341 52.2002 102.68 52.2002 102 52.2002C102 52.4639 102 52.7281 102 53C100.68 52.7358 99.3606 52.4721 98 52.2002C98 51.936 98 51.6719 98 51.3999C101 51 101 51 104 51Z" fill="#EEEEEE"/>
<path id="Vector_61" d="M124 175C125.32 175.147 126.64 175.293 128 175.444C127.659 176.486 127.21 177.524 126.666 178.556C125.346 178.775 125.346 178.775 124 179C124 177.68 124 176.36 124 175Z" fill="#EAE9EA"/>
<path id="Vector_62" d="M15 76C17.475 76.4948 17.475 76.4948 20 76.9998C20 77.4946 20 77.9899 20 78.4996C18.7625 78.6647 17.525 78.8298 16.25 79C15.8375 78.0099 15.425 77.0198 15 76Z" fill="#D6D6D6"/>
</g>
<defs>
<clipPath id="clip0_3311_2">
<rect width="308" height="403" fill="white" transform="translate(0 -213)"/>
</clipPath>
</defs>
</svg>
